<?xml version="1.0" standalone="no"?>
<!DOCTYPE svg PUBLIC "-//W3C//DTD SVG 20010904//EN"
 "http://www.w3.org/TR/2001/REC-SVG-20010904/DTD/svg10.dtd">
<svg version="1.0" xmlns="http://www.w3.org/2000/svg"
 width="256.000000pt" height="256.000000pt" viewBox="0 0 256.000000 256.000000"
 preserveAspectRatio="xMidYMid meet">

<g transform="translate(0.000000,256.000000) scale(0.100000,-0.100000)"
fill="#000000" stroke="none">
<path d="M1038 2541 c-398 -87 -718 -333 -893 -686 -83 -167 -106 -259 -112
-440 -12 -373 -10 -390 72 -560 41 -85 71 -170 67 -188 -3 -11 23 -3 131 40
48 19 92 31 97 28 6 -3 10 1 10 9 0 12 -5 14 -25 6 -22 -8 -25 -7 -25 11 0 34
40 101 94 159 28 30 38 43 21 29 -23 -20 -36 -24 -55 -18 -22 6 -23 7 -4 8 29
1 81 56 95 99 7 21 9 59 5 99 -7 72 1 136 16 127 7 -4 7 6 3 27 -11 49 -8 177
6 234 6 28 13 71 14 96 l3 47 -42 -5 -41 -4 37 14 c59 23 88 45 88 70 0 35 58
129 155 252 49 62 91 112 93 111 1 -2 -5 -22 -13 -46 -18 -51 -18 -50 -2 -50
7 0 21 23 31 50 10 28 20 49 22 47 2 -2 -3 -23 -11 -47 -20 -55 -20 -54 15
-67 17 -6 28 -7 24 -2 -8 14 27 99 41 99 15 0 45 70 45 106 0 21 12 30 81 64
163 79 325 91 434 32 50 -27 55 -28 60 -12 3 10 12 24 21 31 13 10 13 8 5 -14
-10 -25 -9 -25 20 -15 48 16 130 5 168 -23 49 -36 155 -182 202 -278 63 -129
72 -195 65 -466 -4 -126 -12 -268 -19 -315 l-12 -85 -6 80 c-5 62 -6 53 -4
-40 2 -66 6 -133 10 -150 5 -21 4 -27 -3 -20 -6 6 -12 21 -15 35 -2 14 -5 -13
-6 -59 0 -46 -4 -81 -8 -77 -4 4 -10 62 -14 129 l-6 122 -1 -145 c-2 -98 -5
-140 -12 -130 -7 11 -10 3 -10 -30 0 -32 -3 -41 -10 -30 -28 45 -25 -121 4
-180 l17 -35 -25 30 c-29 33 -32 23 -15 -38 14 -53 5 -57 -21 -10 -12 21 -18
29 -15 18 16 -50 23 -114 18 -154 l-6 -43 -26 77 c-15 42 -33 80 -40 84 -8 5
-10 14 -6 22 5 8 4 11 0 6 -5 -4 -20 3 -33 15 l-25 23 12 -22 c6 -12 11 -48
10 -80 0 -40 -3 -52 -8 -38 -8 17 -10 16 -18 -15 l-10 -35 -7 48 c-6 39 -10
46 -21 37 -11 -9 -16 -3 -24 32 l-11 43 4 -40 c2 -22 0 -51 -4 -65 -7 -23 -8
-22 -9 10 -2 44 -21 79 -21 39 0 -15 -7 -29 -15 -33 -8 -3 -14 -2 -14 2 3 21
-6 35 -57 83 -33 33 -53 60 -50 69 2 8 13 45 24 82 16 57 27 74 70 113 28 26
61 64 74 86 12 21 27 39 34 39 6 0 27 2 45 5 26 4 30 3 14 -4 -16 -8 -13 -10
20 -10 27 0 34 3 22 8 -18 6 -18 8 -2 21 35 29 95 187 95 252 0 14 5 28 10 30
6 2 -7 53 -31 121 -23 64 -44 116 -45 114 -2 -2 3 -24 12 -50 14 -40 14 -49 1
-74 -25 -47 -60 -72 -122 -87 -33 -8 -52 -15 -42 -15 42 -2 109 23 137 52 16
17 30 26 30 21 0 -31 -58 -171 -122 -296 -94 -185 -134 -227 -270 -283 -53
-22 -95 -41 -93 -44 2 -2 38 11 80 29 43 17 79 29 82 27 8 -9 -29 -122 -64
-190 -19 -38 -30 -66 -25 -63 5 3 17 23 27 46 17 38 35 53 35 29 0 -6 25 -36
55 -68 64 -67 68 -56 -55 -158 -47 -39 -99 -86 -116 -105 -17 -18 -46 -46 -65
-61 l-34 -28 40 27 c22 16 77 62 121 104 45 41 104 96 132 121 l50 45 59 -55
c147 -139 267 -241 250 -214 -4 6 20 31 52 56 37 29 83 80 124 139 36 51 93
120 127 153 34 33 83 92 110 130 26 39 58 79 70 90 25 23 32 38 68 155 24 80
25 96 23 275 -2 226 -27 391 -92 611 -17 55 -94 168 -153 224 -33 30 -78 85
-102 122 -89 138 -340 289 -591 355 -84 22 -124 26 -283 29 -154 3 -200 1
-272 -15z m-107 -324 c-10 -9 -11 -8 -5 6 3 10 9 15 12 12 3 -3 0 -11 -7 -18z
m629 -1632 c13 -14 21 -25 18 -25 -2 0 -15 11 -28 25 -13 14 -21 25 -18 25 2
0 15 -11 28 -25z"/>
<path d="M1515 2010 c-4 -6 1 -7 11 -3 10 4 15 2 11 -4 -3 -5 0 -10 8 -10 11
0 12 4 4 14 -14 15 -26 17 -34 3z"/>
<path d="M1620 1983 c18 -24 35 -43 37 -43 7 0 -35 56 -54 71 -9 8 -2 -5 17
-28z"/>
<path d="M785 1999 c-4 -6 -5 -12 -2 -15 2 -3 7 2 10 11 7 17 1 20 -8 4z"/>
<path d="M1496 1965 c-9 -26 -7 -32 5 -12 6 10 9 21 6 23 -2 3 -7 -2 -11 -11z"/>
<path d="M898 1950 c6 -8 12 -24 12 -37 0 -23 -1 -23 -30 -8 -35 18 -100 20
-101 3 0 -7 -5 -4 -10 7 -8 17 -8 16 -4 -7 3 -15 -3 -50 -14 -78 l-19 -50 24
0 c14 0 37 -6 52 -14 27 -14 28 -13 30 12 1 15 9 48 18 74 13 41 18 46 33 38
10 -5 21 -6 25 -3 12 13 6 51 -11 64 -15 11 -16 11 -5 -1z m-100 -103 c-11
-32 -23 -55 -26 -53 -3 3 0 18 6 33 6 15 16 41 22 57 6 16 13 27 15 24 2 -2
-5 -30 -17 -61z"/>
<path d="M1550 1920 c0 -16 4 -30 8 -30 5 0 7 14 4 30 -2 17 -6 30 -8 30 -2 0
-4 -13 -4 -30z"/>
<path d="M1472 1905 c-14 -31 -83 -106 -133 -146 -42 -33 -83 -32 -94 2 -5 15
-10 17 -25 9 -10 -6 -45 -11 -77 -11 l-58 -2 75 -7 c73 -7 142 -33 184 -69 11
-9 16 -10 12 -3 -4 6 -3 12 2 12 15 0 22 -13 14 -24 -4 -6 -5 -29 -1 -51 6
-38 6 -38 8 -7 0 17 5 32 10 32 16 0 22 -18 9 -24 -7 -3 -3 -3 9 0 19 4 45 0
120 -22 10 -3 9 -12 -4 -39 l-17 -35 -22 21 c-17 16 -32 20 -68 17 -43 -3 -47
-6 -68 -48 -13 -25 -38 -55 -57 -67 -19 -13 -28 -23 -21 -23 13 0 74 61 103
103 37 56 127 24 127 -45 0 -53 18 -102 47 -131 30 -28 91 -57 120 -57 10 1
-7 9 -37 20 -31 10 -66 31 -82 49 -49 55 -46 168 7 225 21 23 31 26 92 26 83
0 121 -9 101 -22 -9 -6 -6 -7 10 -3 15 4 32 -1 53 -16 l31 -22 -7 24 c-4 13
-12 31 -17 39 -7 12 -8 10 -5 -7 3 -15 1 -20 -9 -16 -8 3 -12 9 -9 13 6 9 -33
40 -50 40 -5 -1 3 -8 18 -16 38 -20 27 -30 -14 -14 -17 8 -63 13 -100 12 -38
0 -69 2 -69 5 0 3 8 12 18 19 15 12 15 13 0 8 -10 -3 -18 1 -22 13 -3 10 -4 1
-3 -19 l3 -38 -42 0 c-24 0 -55 5 -69 10 -24 9 -26 13 -14 28 11 14 11 15 -1
5 -20 -18 -45 -16 -61 4 -8 9 -9 14 -4 11 6 -4 17 -2 25 3 13 9 13 9 0 7 -8
-2 -29 7 -45 18 -17 12 -36 19 -42 17 -24 -8 -13 4 58 73 67 66 116 130 107
140 -3 2 -10 -7 -16 -21z"/>
<path d="M1690 1880 c6 -11 13 -20 16 -20 2 0 0 9 -6 20 -6 11 -13 20 -16 20
-2 0 0 -9 6 -20z"/>
<path d="M1541 1863 c-1 -6 -4 -20 -7 -30 -5 -17 -5 -17 6 0 6 10 9 23 6 30
-3 9 -5 9 -5 0z"/>
<path d="M649 1748 c-20 -18 -26 -26 -15 -17 12 9 32 23 46 32 13 10 20 17 14
17 -6 0 -26 -15 -45 -32z"/>
<path d="M1033 1733 c-10 -10 -14 -15 -8 -11 6 4 22 12 36 17 15 6 18 10 8 10
-9 1 -25 -7 -36 -16z"/>
<path d="M1760 1745 c0 -5 5 -17 10 -25 5 -8 10 -10 10 -5 0 6 -5 17 -10 25
-5 8 -10 11 -10 5z"/>
<path d="M845 1732 c4 -8 -4 -28 -22 -50 -69 -87 -100 -218 -88 -370 4 -54 8
-109 9 -124 1 -16 5 -23 11 -18 6 4 21 10 34 12 20 2 26 -4 40 -42 9 -25 19
-46 23 -48 4 -2 4 -10 1 -19 -5 -12 -3 -14 6 -8 10 5 11 2 7 -12 -4 -11 -2
-31 4 -44 9 -21 9 -19 4 11 l-5 35 27 -35 c15 -19 53 -60 84 -90 179 -176 218
-200 329 -206 l66 -3 -60 8 c-103 13 -157 46 -291 177 -117 115 -150 160 -187
252 -16 39 -16 45 -1 74 11 21 18 69 22 150 l5 119 57 44 c32 24 60 41 64 38
3 -4 6 3 6 15 0 19 -1 19 -28 -6 -16 -15 -45 -40 -66 -55 -52 -40 -96 -104
-96 -141 -1 -27 -2 -28 -11 -13 -17 28 -2 184 21 227 6 11 9 24 6 29 -3 4 6
25 20 45 21 30 23 40 14 49 -10 9 -11 9 -5 -1z"/>
<path d="M970 1730 c-13 -8 -13 -10 2 -10 9 0 20 5 23 10 8 13 -5 13 -25 0z"/>
<path d="M1118 1723 c7 -3 16 -2 19 1 4 3 -2 6 -13 5 -11 0 -14 -3 -6 -6z"/>
<path d="M1195 1712 c-11 -10 -21 -24 -23 -32 -2 -8 10 -2 27 14 17 17 31 31
31 33 0 8 -17 1 -35 -15z"/>
<path d="M1036 1667 c-26 -35 -29 -42 -10 -22 16 17 39 40 52 53 13 12 17 22
10 21 -7 0 -30 -24 -52 -52z"/>
<path d="M914 1678 c-24 -27 -24 -29 -3 -10 l26 22 26 -21 c26 -19 27 -20 34
-2 3 10 8 22 11 27 3 5 0 6 -6 2 -7 -4 -12 -14 -12 -22 0 -8 -5 -12 -10 -9 -6
4 -8 16 -5 28 2 12 2 16 -1 10 -3 -7 -12 -13 -20 -13 -9 0 -12 5 -9 10 12 20
-2 9 -31 -22z"/>
<path d="M1230 1685 c-25 -13 -41 -24 -37 -25 4 0 21 7 38 15 28 15 31 14 67
-11 l37 -26 -30 26 c-16 15 -29 31 -27 36 3 13 5 13 -48 -15z"/>
<path d="M1129 1654 c-17 -10 -19 -13 -7 -14 9 0 19 4 23 10 3 5 12 7 20 3 8
-3 15 -3 15 0 0 13 -28 13 -51 1z"/>
<path d="M605 1635 c-14 -13 -25 -30 -25 -37 0 -9 3 -9 11 2 9 12 10 12 5 -3
-3 -11 -9 -30 -12 -44 -5 -19 -9 -22 -16 -11 -5 8 -6 -2 -2 -26 5 -30 4 -37
-6 -31 -11 7 -12 -5 -7 -56 4 -43 3 -57 -4 -44 -6 14 -7 7 -3 -25 8 -61 24
-77 62 -61 28 12 30 17 36 84 12 125 16 151 28 199 18 74 -18 103 -67 53z m12
-77 c0 -7 4 -21 8 -32 6 -14 4 -17 -6 -14 -11 4 -16 28 -10 53 2 10 8 5 8 -7z"/>
<path d="M1628 1653 c7 -3 16 -2 19 1 4 3 -2 6 -13 5 -11 0 -14 -3 -6 -6z"/>
<path d="M1688 1643 c6 -2 18 -2 25 0 6 3 1 5 -13 5 -14 0 -19 -2 -12 -5z"/>
<path d="M1070 1597 c0 -8 191 -69 197 -63 2 2 -20 12 -49 21 -29 10 -57 21
-63 25 -13 10 -85 24 -85 17z"/>
<path d="M995 1540 c10 -69 117 -132 219 -129 34 1 30 3 -21 10 -70 9 -140 36
-165 65 -9 10 -21 35 -27 54 l-11 35 5 -35z"/>
<path d="M1551 1518 c-13 -22 -13 -22 5 -6 11 9 41 18 69 21 l50 3 -55 2 c-48
2 -57 -1 -69 -20z"/>
<path d="M1640 1520 c-42 -6 -90 -24 -90 -36 0 -2 8 0 18 5 16 9 18 6 14 -18
-5 -35 20 -61 58 -61 34 0 54 29 47 66 -2 13 -1 24 4 24 12 0 37 -28 44 -50 6
-18 25 -29 25 -14 0 18 -60 95 -60 77 0 -5 -4 -3 -8 2 -4 6 -26 8 -52 5z m-20
-34 c0 -3 -4 -8 -10 -11 -5 -3 -10 -1 -10 4 0 6 5 11 10 11 6 0 10 -2 10 -4z"/>
<path d="M1555 1430 c10 -11 20 -20 23 -20 3 0 -3 9 -13 20 -10 11 -20 20 -23
20 -3 0 3 -9 13 -20z"/>
<path d="M1483 1370 c0 -36 2 -50 4 -32 2 17 2 47 0 65 -2 17 -4 3 -4 -33z"/>
<path d="M1618 1393 c7 -3 16 -2 19 1 4 3 -2 6 -13 5 -11 0 -14 -3 -6 -6z"/>
<path d="M1708 1393 c7 -3 16 -2 19 1 4 3 -2 6 -13 5 -11 0 -14 -3 -6 -6z"/>
<path d="M1658 1383 c6 -2 18 -2 25 0 6 3 1 5 -13 5 -14 0 -19 -2 -12 -5z"/>
<path d="M1257 1303 c-9 -9 -8 -45 1 -60 5 -7 8 4 7 27 0 22 0 40 -1 40 0 0
-4 -3 -7 -7z"/>
<path d="M1495 1245 c0 -23 3 -41 8 -38 9 6 9 54 -1 70 -4 7 -7 -8 -7 -32z"/>
<path d="M1947 1236 c7 -33 -23 -129 -62 -203 -18 -35 -28 -60 -23 -57 15 9
77 143 84 181 3 18 9 31 13 29 4 -3 5 11 3 30 -2 19 -8 36 -12 39 -4 2 -5 -6
-3 -19z"/>
<path d="M1300 1243 c8 -3 23 -13 34 -22 17 -15 18 -15 15 4 -3 14 -13 21 -34
22 -17 1 -23 0 -15 -4z"/>
<path d="M1414 1208 c-4 -6 -3 -8 4 -4 6 3 13 2 17 -4 9 -15 25 -12 25 5 0 18
-36 20 -46 3z"/>
<path d="M575 1190 c10 -11 20 -20 23 -20 3 0 -3 9 -13 20 -10 11 -20 20 -23
20 -3 0 3 -9 13 -20z"/>
<path d="M1034 1202 c3 -5 40 -37 83 -72 43 -35 67 -51 53 -36 l-25 28 30 -6
30 -6 -31 12 c-49 20 -124 70 -118 80 3 4 -2 8 -11 8 -9 0 -14 -4 -11 -8z"/>
<path d="M1380 1152 c0 -6 -8 -13 -17 -15 -16 -4 -16 -5 -1 -6 18 -1 34 16 24
26 -3 4 -6 1 -6 -5z"/>
<path d="M663 1143 c9 -2 23 -2 30 0 6 3 -1 5 -18 5 -16 0 -22 -2 -12 -5z"/>
<path d="M1210 1081 c0 -17 4 -32 8 -35 4 -2 6 11 4 30 -5 42 -12 45 -12 5z"/>
<path d="M1260 1080 c8 -5 20 -10 25 -10 6 0 3 5 -5 10 -8 5 -19 10 -25 10 -5
0 -3 -5 5 -10z"/>
<path d="M1310 1060 c8 -5 26 -10 39 -10 32 0 24 6 -19 14 -25 4 -31 3 -20 -4z"/>
<path d="M1260 1041 c0 -7 -5 -9 -12 -5 -9 5 -10 4 -3 -4 6 -6 24 -13 40 -16
17 -4 23 -3 15 0 -8 4 -21 13 -27 22 -9 10 -13 12 -13 3z"/>
<path d="M1395 1040 c3 -5 8 -10 11 -10 2 0 4 5 4 10 0 6 -5 10 -11 10 -5 0
-7 -4 -4 -10z"/>
<path d="M1450 1015 c0 -8 2 -15 4 -15 2 0 6 7 10 15 3 8 1 15 -4 15 -6 0 -10
-7 -10 -15z"/>
<path d="M1488 1013 c6 -3 10 -9 6 -14 -6 -11 21 -10 56 1 27 9 25 10 -35 14
-22 2 -34 1 -27 -1z"/>
<path d="M1378 983 c6 -2 18 -2 25 0 6 3 1 5 -13 5 -14 0 -19 -2 -12 -5z"/>
<path d="M1438 983 c7 -3 16 -2 19 1 4 3 -2 6 -13 5 -11 0 -14 -3 -6 -6z"/>
<path d="M850 970 c0 -5 5 -10 11 -10 5 0 7 5 4 10 -3 6 -8 10 -11 10 -2 0 -4
-4 -4 -10z"/>
<path d="M885 963 c4 -16 2 -22 -7 -20 -7 2 -10 2 -6 0 4 -2 4 -12 1 -21 -3
-11 1 -8 11 5 13 18 15 27 6 40 -9 16 -10 15 -5 -4z"/>
<path d="M900 921 c0 -5 9 -19 20 -32 l21 -24 -16 33 c-15 31 -25 41 -25 23z"/>
<path d="M1310 916 c0 -2 7 -7 16 -10 8 -3 12 -2 9 4 -6 10 -25 14 -25 6z"/>
<path d="M881 874 c0 -11 3 -14 6 -6 3 7 2 16 -1 19 -3 4 -6 -2 -5 -13z"/>
<path d="M856 855 c4 -8 8 -15 10 -15 2 0 4 7 4 15 0 8 -4 15 -10 15 -5 0 -7
-7 -4 -15z"/>
<path d="M890 831 c0 -7 -5 -9 -12 -5 -7 5 -8 3 -3 -5 5 -9 10 -10 18 -2 6 6
8 14 4 18 -4 3 -7 1 -7 -6z"/>
<path d="M897 804 c-3 -4 1 -20 9 -36 8 -16 17 -52 19 -79 2 -28 6 -54 10 -57
4 -4 4 20 0 53 -4 33 -7 68 -7 78 1 10 -6 21 -14 24 -7 3 -11 9 -8 14 6 10 0
12 -9 3z"/>
<path d="M415 789 c-4 -6 -5 -12 -2 -15 2 -3 7 2 10 11 7 17 1 20 -8 4z"/>
<path d="M512 708 c-18 -23 -32 -46 -32 -52 0 -6 10 5 22 24 l22 35 6 -30 c6
-27 7 -25 11 18 2 26 4 47 4 47 -1 0 -15 -19 -33 -42z"/>
<path d="M823 711 c8 -23 13 -28 15 -16 2 10 -3 25 -12 33 -14 15 -15 13 -3
-17z"/>
<path d="M862 711 c-9 -5 -5 -11 14 -20 33 -15 40 -10 16 12 -10 9 -23 13 -30
8z"/>
<path d="M401 670 c0 -8 4 -22 9 -30 12 -18 12 -2 0 25 -6 13 -9 15 -9 5z"/>
<path d="M439 632 c-3 -24 -2 -45 2 -48 11 -6 16 28 9 61 -6 28 -7 27 -11 -13z"/>
<path d="M841 654 c0 -11 3 -14 6 -6 3 7 2 16 -1 19 -3 4 -6 -2 -5 -13z"/>
<path d="M540 642 c0 -6 11 -23 24 -39 13 -15 33 -46 44 -68 12 -22 21 -34 22
-27 0 13 -16 41 -62 106 -16 21 -28 34 -28 28z"/>
<path d="M1592 630 c0 -14 2 -19 5 -12 2 6 2 18 0 25 -3 6 -5 1 -5 -13z"/>
<path d="M468 615 c-3 -14 1 -30 8 -36 10 -8 14 -8 14 0 0 6 -4 11 -9 11 -4 0
-6 11 -3 25 2 14 2 25 -1 25 -2 0 -7 -11 -9 -25z"/>
<path d="M691 604 c0 -16 4 -38 9 -49 6 -13 7 -5 3 25 -7 53 -13 66 -12 24z"/>
<path d="M731 614 c0 -11 3 -14 6 -6 3 7 2 16 -1 19 -3 4 -6 -2 -5 -13z"/>
<path d="M853 570 c0 -30 2 -43 4 -27 2 15 2 39 0 55 -2 15 -4 2 -4 -28z"/>
<path d="M1295 583 c-8 -20 -13 -38 -10 -41 3 -3 5 -3 5 0 0 3 7 22 15 42 8
20 13 36 10 36 -2 0 -12 -16 -20 -37z"/>
<path d="M1662 595 c0 -16 2 -22 5 -12 2 9 2 23 0 30 -3 6 -5 -1 -5 -18z"/>
<path d="M662 570 c0 -14 2 -19 5 -12 2 6 2 18 0 25 -3 6 -5 1 -5 -13z"/>
<path d="M816 535 l6 -60 -25 29 -24 30 -5 -33 c-3 -17 -1 -34 4 -37 4 -3 8 7
8 23 0 26 2 25 32 -22 119 -187 168 -246 239 -287 28 -16 29 -16 9 -1 -93 67
-230 246 -230 300 0 13 4 22 9 19 5 -3 3 11 -4 32 -22 67 -25 68 -19 7z"/>
<path d="M740 536 c0 -19 3 -37 8 -40 4 -2 6 13 4 35 -5 48 -12 51 -12 5z"/>
<path d="M678 518 c-3 -24 -1 -50 3 -58 5 -9 9 7 9 43 0 67 -6 75 -12 15z"/>
<path d="M636 486 c-14 -41 -16 -58 -8 -72 10 -16 11 -14 12 16 0 47 10 81 21
74 5 -3 9 2 9 10 0 35 -18 21 -34 -28z"/>
<path d="M1257 495 c-24 -50 -20 -58 4 -12 11 22 19 41 17 43 -3 2 -12 -12
-21 -31z"/>
<path d="M712 480 c0 -19 2 -27 5 -17 2 9 2 25 0 35 -3 9 -5 1 -5 -18z"/>
<path d="M856 485 c-3 -8 -1 -15 4 -15 6 0 10 7 10 15 0 8 -2 15 -4 15 -2 0
-6 -7 -10 -15z"/>
<path d="M728 441 c-2 -16 1 -40 8 -53 10 -19 11 -16 7 27 -7 61 -9 65 -15 26z"/>
<path d="M865 450 c3 -5 8 -10 11 -10 2 0 4 5 4 10 0 6 -5 10 -11 10 -5 0 -7
-4 -4 -10z"/>
<path d="M1279 173 c-13 -16 -12 -17 4 -4 16 13 21 21 13 21 -2 0 -10 -8 -17
-17z"/>
<path d="M1168 133 c12 -2 30 -2 40 0 9 3 -1 5 -23 4 -22 0 -30 -2 -17 -4z"/>
<path d="M0 10 c0 -7 433 -10 1280 -10 847 0 1280 3 1280 10 0 7 -433 10
-1280 10 -847 0 -1280 -3 -1280 -10z"/>
</g>
</svg>
